<?xml version="1.0" encoding="UTF-8"?>
<svg version="1.1" xmlns="http://www.w3.org/2000/svg" width="48" height="48">
<path d="M0 0 C11.88 0 23.76 0 36 0 C36 8.58 36 17.16 36 26 C24.12 26 12.24 26 0 26 C0 17.42 0 8.84 0 0 Z " fill="#F95859" transform="translate(6,22)"/>
<path d="M0 0 C5.94 0 11.88 0 18 0 C18 5.28 18 10.56 18 16 C17.01 16 16.02 16 15 16 C14.67 15.01 14.34 14.02 14 13 C13.34 12.34 12.68 11.68 12 11 C12 9.68 12 8.36 12 7 C11.01 7 10.02 7 9 7 C9.12375 8.11375 9.12375 8.11375 9.25 9.25 C9 12 9 12 7.125 14.3125 C5 16 5 16 3 16 C3 18.64 3 21.28 3 24 C13.23 24 23.46 24 34 24 C34 16.08 34 8.16 34 0 C34.66 0 35.32 0 36 0 C36 8.58 36 17.16 36 26 C24.12 26 12.24 26 0 26 C0 17.42 0 8.84 0 0 Z " fill="#0D6FAF" transform="translate(6,22)"/>
<path d="M0 0 C2.2890625 1.65234375 2.2890625 1.65234375 4.625 3.9375 C9.1750865 8.2820103 13.93922068 12.15046004 18.9453125 15.95703125 C19.96238281 16.96830078 19.96238281 16.96830078 21 18 C21 19.32 21 20.64 21 22 C16.85937762 21.43805839 14.40771861 19.1730478 11.25 16.5625 C10.26515625 15.75941406 9.2803125 14.95632812 8.265625 14.12890625 C7.14414063 13.07509766 7.14414063 13.07509766 6 12 C6 11.34 6 10.68 6 10 C5.38125 9.690625 4.7625 9.38125 4.125 9.0625 C2.75 8.375 1.375 7.6875 0 7 C0 6.34 0 5.68 0 5 C-3.34373475 5.55728913 -6.03312999 6.35173889 -9 8 C-9 8.66 -9 9.32 -9 10 C-12.46153846 13 -12.46153846 13 -15 13 C-15.33 13.99 -15.66 14.98 -16 16 C-17.7421875 17.60546875 -17.7421875 17.60546875 -19.875 19.1875 C-20.92300781 19.98220703 -20.92300781 19.98220703 -21.9921875 20.79296875 C-24 22 -24 22 -27 22 C-26.43790555 18.56086948 -25.47112228 17.19798944 -22.75 15.0625 C-20.41845772 13.18098847 -18.25011455 11.2984416 -16.1875 9.125 C-14 7 -14 7 -12 7 C-12 6.34 -12 5.68 -12 5 C-10.64453125 3.7109375 -10.64453125 3.7109375 -8.8125 2.375 C-8.22082031 1.92898437 -7.62914063 1.48296875 -7.01953125 1.0234375 C-4.40026757 -0.3039263 -2.90551735 -0.44939855 0 0 Z " fill="#006CB1" transform="translate(27,2)"/>
<path d="M0 0 C5.28 0 10.56 0 16 0 C16 5.28 16 10.56 16 16 C15.01 16 14.02 16 13 16 C11.00902154 13.01353231 10.05875074 10.40312738 9 7 C8.01 7 7.02 7 6 7 C6 8.65 6 10.3 6 12 C5.01 12.495 5.01 12.495 4 13 C3.67 13.99 3.34 14.98 3 16 C2.01 16 1.02 16 0 16 C0 10.72 0 5.44 0 0 Z " fill="#E5E8EB" transform="translate(24,22)"/>
<path d="M0 0 C1.890625 0.21484375 1.890625 0.21484375 4 1 C5.46742502 3.89652178 6.11450315 6.85648617 7 10 C3.7 10 0.4 10 -3 10 C-2.1469752 6.5879008 -1.13357275 3.32514673 0 0 Z " fill="#3C8FC1" transform="translate(30,28)"/>
<path d="M0 0 C1.32 0.33 2.64 0.66 4 1 C4.144375 1.7425 4.28875 2.485 4.4375 3.25 C4.90031411 5.51264678 5.43986518 7.7594607 6 10 C2.7 10 -0.6 10 -4 10 C-3.34 8.68 -2.68 7.36 -2 6 C-1.31039038 4.00779443 -0.63920943 2.00894394 0 0 Z " fill="#C3D7E3" transform="translate(15,28)"/>
<path d="M0 0 C2.97 0 5.94 0 9 0 C9.33 0.99 9.66 1.98 10 3 C6.7 3 3.4 3 0 3 C0 2.01 0 1.02 0 0 Z " fill="#2074AF" transform="translate(27,35)"/>
<path d="M0 0 C2.97 0 5.94 0 9 0 C9 0.99 9 1.98 9 3 C5.7 3 2.4 3 -1 3 C-0.67 2.01 -0.34 1.02 0 0 Z " fill="#E1DBDF" transform="translate(12,35)"/>
</svg>
